PathFileType	4	(X/Y/Z)	Patient4_TMGait_0pt5_01_left_01.trc.trc
DataRate	CameraRate	NumFrames	NumMarkers	Units	OrigDataRate	OrigDataStartFrame	OrigNumFrames
73.684210526316	73.684210526316	5	33	mm	73.684210526316	36	       141
Frame#	Time	L.ASIS			Sacral			L.Shoulder			Chest			R.Shoulder			Neck			R.ASIS			R.Thigh.Superior			R.Thigh.Lateral			R.Thigh.Inferior			R.Patella			L.Thigh.Superior			L.Thigh.Lateral			L.Thigh.Inferior			L.Patella			L.Shank.Superior			L.Shank.Lateral			L.Shank.Inferior			R.Shank.Superior			R.Shank.Lateral			R.Shank.Inferior			R.Heel			R.Midfoot.Superior			R.Midfoot.Lateral			R.Toe			L.Heel			L.Midfoot.Lateral			L.Midfoot.Superior			L.Toe			L.Elbow			L.Wrist			R.Elbow			R.Wrist			
		X1	Y1	Z1	X2	Y2	Z2	X3	Y3	Z3	X4	Y4	Z4	X5	Y5	Z5	X6	Y6	Z6	X7	Y7	Z7	X8	Y8	Z8	X9	Y9	Z9	X10	Y10	Z10	X11	Y11	Z11	X12	Y12	Z12	X13	Y13	Z13	X14	Y14	Z14	X15	Y15	Z15	X16	Y16	Z16	X17	Y17	Z17	X18	Y18	Z18	X19	Y19	Z19	X20	Y20	Z20	X21	Y21	Z21	X22	Y22	Z22	X23	Y23	Z23	X24	Y24	Z24	X25	Y25	Z25	X26	Y26	Z26	X27	Y27	Z27	X28	Y28	Z28	X29	Y29	Z29	X30	Y30	Z30	X31	Y31	Z31	X32	Y32	Z32	X33	Y33	Z33	

36	1.645000000000	762.359684322800	954.269721226144	321.487475919668	555.126114044398	991.233534971235	491.114528266308	678.381676391482	1421.623324140311	291.889651337119	801.451579382817	1364.097876041694	443.578613274108	729.610428110907	1437.122842546658	623.781534591035	686.778623991105	1486.478393233773	441.231755700146	788.282503354232	933.528011858315	595.059508113687	803.831520223668	719.991004517432	568.631204924458	711.172529353955	617.704794966717	629.720148430648	779.731961800552	554.555550382820	550.806973674431	763.379252596123	451.201465345225	562.979438763973	841.202236510455	763.774070864043	356.930989736524	776.787444468473	635.718427340575	293.121906536276	874.439227793656	573.767092205523	356.782467256160	886.306641839828	502.163305890262	363.721383508763	868.051124568928	426.884782368854	355.507832271718	791.723866529378	302.499318956735	307.141187488240	860.001976555497	198.849403653162	375.599076887470	696.738902370525	378.927507425448	567.791317491626	588.451154532815	315.328413054095	629.411057492810	589.107089762518	209.841487571734	572.082689255489	400.605847150088	95.926446992965	543.601696457011	578.152418332342	105.218589203210	585.808308292997	476.327455395219	67.961011467154	620.061661274968	676.906256649664	35.166929835009	619.775152181027	747.818620710201	37.184043464864	421.769127195925	819.019067403370	35.152631108595	338.008309720458	901.668314046299	98.235536301304	360.644790729439	1029.247346723262	49.735655660948	328.976880646145	596.633457449867	1071.696443748208	196.269125747116	616.786867862767	811.751207016068	203.321608290022	821.474235504940	1106.239171014001	741.428808669323	1055.245630628182	1084.458762666425	647.740965769854	
37	1.658571428571	763.517681109381	955.485760442329	319.521573280500	555.411547242125	991.959025713167	487.938672581035	679.900036668050	1421.797819293834	288.200928651959	801.889146246275	1364.973084858759	440.988627845713	728.905418968538	1438.916542557676	620.324289953180	687.099596689420	1487.299523460587	437.238047909777	787.963719581776	934.347301911984	593.165461929790	808.198388752120	721.841962318665	566.858891364188	718.169386617405	617.727131000656	627.932157660028	789.191672535416	555.545529797540	549.822053931919	774.139793104980	450.500909200015	563.482275925310	840.899459628565	763.449649843367	353.787951586958	774.574468058066	635.943759657279	291.245814022290	871.620473371030	573.079176627454	354.722713030546	882.776160193172	501.690287977979	362.283976318418	864.120273751027	426.405570942362	354.258665234618	787.047254908751	302.427355940422	306.111220870652	854.245740081554	198.577570530888	375.194843738067	704.888882567550	379.318694402948	567.576467400192	593.689432339948	319.871477898761	628.140307646364	591.601375410596	213.917077180258	571.675633061137	399.516932719494	108.287384154481	542.103520712812	576.744640046653	107.901179973966	585.521644724318	473.009608161566	76.333857180019	618.972649159507	670.447440361870	34.351349565688	619.652095056939	741.079993597458	37.147142941889	421.672979182805	812.288692974948	35.173275611104	337.888093840460	894.818180332551	98.349365304946	360.576427740420	1022.457806904449	50.144620455433	328.934373513957	604.480091406323	1070.080366566819	192.107044509655	628.698091779518	810.564300328429	198.955962775559	814.763418696992	1107.085564057966	740.273557126001	1047.982547513657	1075.639414595943	647.232804748392	
38	1.672142857143	764.408002370392	956.690948139938	317.550713972063	555.415702338338	992.703208121518	484.754817182490	681.494020223802	1422.054911912963	284.700813537649	802.300458214847	1365.801638499450	438.600908311461	728.102693995374	1440.543070613414	617.088418037462	687.428630703768	1488.100786919677	433.474521971071	787.493955136659	935.071785405994	591.232427759815	812.819536738136	723.969496503719	565.142835497726	725.578060792958	617.985487290196	626.308817814479	799.147087196814	556.913255138555	549.045234732192	785.420675502606	450.280435930147	564.070624433622	840.077510302764	762.947594714347	350.507246962354	771.787636144938	636.087406845982	289.275856401299	868.167471343592	572.282081224809	352.591349607854	878.605243588561	501.137830782851	360.691457976869	859.611062925566	425.896802189868	352.865270272270	781.871826731886	302.226342013849	305.089734337599	848.210578816626	198.287983874943	374.730759049749	713.771262173322	380.105995103185	567.443436896553	599.767765685452	324.880412667551	626.844699485658	594.921068484491	218.566486846986	571.200380436608	399.609757372390	121.792049026837	540.243222282237	575.943185258480	111.112192783649	585.063002162107	470.441518611266	85.743128635497	617.623516227816	664.128875180811	33.479344424362	619.559494569553	734.276796300014	37.082982701208	421.607279475723	805.476851215385	35.142849706081	337.787585310853	887.909629531350	98.399668641930	360.498703095321	1015.610905685910	50.436767719477	328.876119848167	612.522312194865	1068.741890904732	187.887716231427	641.348722778672	809.751581916933	194.559783536921	807.284349957830	1107.608083867084	739.105812448848	1039.748586291677	1066.009322457783	647.354688567580	
39	1.685714285714	765.027510938830	957.844062390453	315.560234084311	555.137480361125	993.427770763384	481.581893025213	683.125685981841	1422.372456507966	281.430517985219	802.676210500855	1366.550150317036	436.436786399346	727.206352327520	1441.947738250655	614.114735282836	687.767173844867	1488.857540076088	429.990038678890	786.885759377344	935.686011151870	589.251507792618	817.585719549757	726.369118342760	563.454971265884	733.249165547797	618.527408395543	624.836818940433	809.370024395663	558.693848861641	548.422450653961	797.006733641102	450.592067542662	564.655349521418	838.816853770861	762.327664619761	347.223304646584	768.624999832751	636.186607984655	287.234955236173	864.255878192249	571.432180144654	350.455197915927	873.953914118552	500.529813912412	359.001498109388	854.681061101987	425.368306947021	351.376962989811	776.354397479899	301.926972555902	304.062106320671	841.985662197897	197.981994403420	374.227831195857	723.190529082423	381.316465231993	567.328435112782	606.555284181314	330.293050843090	625.514295183568	598.984378246001	223.735598842163	570.634880477810	400.913879922818	136.142227849679	538.041510527103	575.752265177782	114.877648838422	584.434447215247	468.706821414122	96.026273960823	616.027019340491	658.099528626340	32.616455554311	619.528022006044	727.432620366691	37.004497473100	421.561024362627	798.610229363350	35.072075021300	337.700214273357	880.979432223319	98.383654998195	360.414254617932	1008.733819397088	50.595455371914	328.805368002422	620.718638452595	1067.678668760461	183.634229307763	654.683661062699	809.332266557873	190.151320783414	799.077308126127	1107.763228544666	737.905885299200	1030.521496017348	1055.537826644041	648.155901422632	
40	1.699285714286	765.388980618632	958.919273450523	313.533665710612	554.598556078313	994.107458146052	478.437690008415	684.751905035802	1422.745385046082	278.424101997198	803.004492018134	1367.203609931287	434.508802054917	726.223673532234	1443.100823067282	611.433744415159	688.117906432708	1489.563688717916	426.825786282933	786.148668097611	936.205828998862	587.217889841241	822.372537228722	729.039496713179	561.761291601244	741.025374979160	619.397602302293	623.487841571352	819.629433833602	560.917772939715	547.881894983848	808.693969208667	451.474623540913	565.147767257288	837.219408679236	761.649911889099	344.048962768356	765.259710041910	636.271846392764	285.159969112589	860.051016048977	570.573323865550	348.374959812445	868.980206792484	499.890461565188	357.282615302058	849.479039448726	424.833283120339	349.852341324429	770.634948307055	301.567162008451	303.030494684130	835.649240463724	197.666419334091	373.710891609673	732.951900377054	382.967729175494	567.170311097925	613.910612538155	336.029322864634	624.142637657939	603.708843038181	229.339310707638	569.968527425019	403.419576099226	150.949721235845	535.551691748236	576.204321996904	119.182203516687	583.660738899942	467.892410596580	106.934335650148	614.220786592935	652.569800669332	31.867228500880	619.582870520834	720.567806343532	36.923098728476	421.524055440635	791.713180737393	34.975044527390	337.621459557192	874.053508916750	98.310812629170	360.326917554856	1001.847230079304	50.631711306705	328.726848354520	629.038698065178	1066.895709443747	179.373803176469	668.643350086207	809.336184668520	185.750768509604	790.202949313830	1107.545231610457	736.652976119850	1020.277252331821	1044.206825429237	649.659279633803	
